<svg width="75" height="85" viewBox="0 0 75 85" fill="none" xmlns="http://www.w3.org/2000/svg">
<g clip-path="url(#clip0_892_6)">
<path d="M21.3479 53.125L37.1875 68.9612L53.0271 53.125C64.8955 53.6396 74.375 63.3515 74.375 75.3362C74.375 77.8992 73.3569 80.3572 71.5445 82.1695C69.7322 83.9818 67.2742 85 64.7112 85H9.66376C7.10078 85 4.64276 83.9818 2.83045 82.1695C1.01814 80.3572 0 77.8992 0 75.3362C0 63.3515 9.47949 53.6396 21.3479 53.125ZM37.1875 50.4687C31.5517 50.4687 26.1466 48.2299 22.1615 44.2447C18.1763 40.2596 15.9375 34.8546 15.9375 29.2187V10.9271C15.9362 9.8447 16.2655 8.78771 16.8815 7.89763C17.4974 7.00754 18.3705 6.32685 19.384 5.94665L33.4571 0.675652C35.8623 -0.226194 38.5127 -0.226194 40.9179 0.675652L54.991 5.95329C56.0034 6.33309 56.8758 7.01277 57.4916 7.90154C58.1075 8.7903 58.4375 9.84583 58.4375 10.9271V29.2187C58.4375 34.8546 56.1987 40.2596 52.2135 44.2447C48.2284 48.2299 42.8234 50.4687 37.1875 50.4687ZM43.8281 11.8983C43.8281 11.6782 43.7407 11.467 43.585 11.3114C43.4293 11.1557 43.2182 11.0682 42.998 11.0682H39.4005V7.47067C39.4005 7.25052 39.313 7.03939 39.1574 6.88372C39.0017 6.72805 38.7906 6.64059 38.5704 6.64059H35.8046C35.5844 6.64059 35.3733 6.72805 35.2176 6.88372C35.062 7.03939 34.9745 7.25052 34.9745 7.47067V11.0682H31.377C31.1568 11.0682 30.9457 11.1557 30.79 11.3114C30.6343 11.467 30.5469 11.6782 30.5469 11.8983V14.6641C30.5469 14.8843 30.6343 15.0954 30.79 15.2511C30.9457 15.4068 31.1568 15.4942 31.377 15.4942H34.9745V19.0918C34.9745 19.3119 35.062 19.5231 35.2176 19.6787C35.3733 19.8344 35.5844 19.9218 35.8046 19.9218H38.5704C38.7906 19.9218 39.0017 19.8344 39.1574 19.6787C39.313 19.5231 39.4005 19.3119 39.4005 19.0918V15.4942H42.998C43.2182 15.4942 43.4293 15.4068 43.585 15.2511C43.7407 15.0954 43.8281 14.8843 43.8281 14.6641V11.8983ZM50.4688 26.5625H23.9062V29.2187C23.9062 32.7411 25.3055 36.1193 27.7962 38.61C30.287 41.1007 33.6651 42.5 37.1875 42.5C40.7099 42.5 44.088 41.1007 46.5788 38.61C49.0695 36.1193 50.4688 32.7411 50.4688 29.2187V26.5625Z" fill="white"/>
</g>
<defs>
<clipPath id="clip0_892_6">
<rect width="74.375" height="85" fill="white" transform="matrix(-1 0 0 1 74.375 0)"/>
</clipPath>
</defs>
</svg>
