<svg width="597" height="508" viewBox="0 0 597 508" fill="none" xmlns="http://www.w3.org/2000/svg">
<circle cx="298.313" cy="319.565" r="177.247" stroke="#DBE2FF" stroke-width="15.8256"/>
<g filter="url(#filter0_d_97_67)">
<circle cx="109.592" cy="397.507" r="69.2371" fill="white"/>
<circle cx="109.592" cy="397.507" r="65.2807" stroke="#5974E9" stroke-width="7.91281"/>
</g>
<path d="M142.038 474.363C99.2913 492.213 50.1687 472.03 32.3193 429.284C14.4698 386.537 34.6527 337.415 77.399 319.565" stroke="#5974E9" stroke-width="7.91281" stroke-linecap="round"/>
<path d="M454.196 475.155C496.942 493.004 546.064 472.821 563.914 430.075C581.763 387.329 561.58 338.206 518.834 320.357" stroke="#5974E9" stroke-width="7.91281" stroke-linecap="round"/>
<g filter="url(#filter1_d_97_67)">
<circle cx="485.451" cy="397.507" r="69.2371" fill="white"/>
<circle cx="485.451" cy="397.507" r="65.2807" stroke="#5974E9" stroke-width="7.91281"/>
</g>
<g filter="url(#filter2_d_97_67)">
<circle cx="297.917" cy="109.48" r="69.2371" fill="white"/>
<circle cx="297.917" cy="109.48" r="65.2807" stroke="#5974E9" stroke-width="7.91281"/>
</g>
<path d="M214.437 109.876C214.437 63.5525 251.99 26 298.313 26C344.636 26 382.189 63.5525 382.189 109.876" stroke="#5974E9" stroke-width="7.91281" stroke-linecap="round"/>
<path d="M106.823 391.176C113.381 391.176 118.692 385.865 118.692 379.307C118.692 372.749 113.381 367.438 106.823 367.438C100.265 367.438 94.954 372.749 94.954 379.307C94.954 385.865 100.265 391.176 106.823 391.176ZM106.823 373.372C110.087 373.372 112.758 376.043 112.758 379.307C112.758 382.571 110.087 385.242 106.823 385.242C103.559 385.242 100.889 382.571 100.889 379.307C100.889 376.043 103.559 373.372 106.823 373.372ZM125.784 398.772C120.799 396.221 114.331 394.143 106.823 394.143C99.3159 394.143 92.8472 396.221 87.8621 398.772C86.4143 399.518 85.2014 400.651 84.3581 402.044C83.5147 403.437 83.074 405.037 83.0848 406.666V426.784H89.0194V406.666C89.0194 405.538 89.6129 404.529 90.503 404.054C94.0935 402.244 99.7907 400.078 106.823 400.078C109.078 400.078 111.185 400.286 113.144 400.672L108.544 410.464H100.147C95.6365 410.464 91.9867 414.113 91.9867 418.624C91.9867 423.134 95.6365 426.784 100.147 426.784H124.627C127.891 426.784 130.562 424.113 130.562 420.849V406.666C130.562 403.342 128.752 400.286 125.784 398.772ZM103.678 420.849H100.147C98.9302 420.849 97.9213 419.84 97.9213 418.624C97.9213 417.407 98.9302 416.398 100.147 416.398H105.755L103.678 420.849ZM124.627 420.849H110.236L118.959 402.244C120.562 402.838 121.956 403.461 123.143 404.054C124.034 404.529 124.627 405.538 124.627 406.666V420.849Z" fill="#5974E9"/>
<path d="M508.594 395H508.594L489.844 395L489.843 395C488.468 395.001 487.149 395.548 486.177 396.521C485.205 397.493 484.658 398.812 484.656 400.187V400.188V409.25C484.656 411.735 482.642 413.75 480.156 413.75H464.375C461.89 413.75 459.875 411.735 459.875 409.25V393.156C459.875 391.586 458.602 390.312 457.031 390.312C455.461 390.312 454.188 391.586 454.188 393.156V425.969C454.188 427.539 455.461 428.812 457.031 428.812C458.602 428.812 459.875 427.539 459.875 425.969V423.625C459.875 421.312 461.75 419.438 464.062 419.438H510.938C513.25 419.438 515.125 421.312 515.125 423.625V425.969C515.125 427.539 516.398 428.812 517.969 428.812C519.539 428.812 520.812 427.539 520.812 425.969V407.219V407.218C520.809 403.979 519.52 400.873 517.23 398.583C514.939 396.292 511.834 395.004 508.594 395ZM515.125 409.25C515.125 411.735 513.11 413.75 510.625 413.75H494.844C492.358 413.75 490.344 411.735 490.344 409.25V405.188C490.344 402.702 492.358 400.688 494.844 400.688H508.593C510.325 400.689 511.985 401.378 513.21 402.603C514.435 403.827 515.123 405.487 515.125 407.219V409.25Z" fill="#5974E9" stroke="#5974E9"/>
<path d="M472.266 398.344C472.863 398.344 473.445 398.521 473.941 398.852C474.437 399.183 474.823 399.654 475.052 400.205C475.28 400.756 475.34 401.363 475.223 401.948C475.107 402.533 474.82 403.07 474.398 403.492C473.976 403.913 473.439 404.201 472.854 404.317C472.269 404.433 471.663 404.374 471.112 404.145C470.561 403.917 470.09 403.531 469.758 403.035C469.427 402.539 469.25 401.956 469.25 401.36C469.251 400.56 469.569 399.794 470.135 399.228C470.7 398.663 471.467 398.345 472.266 398.344ZM472.266 392.656C470.544 392.656 468.862 393.167 467.43 394.123C465.999 395.079 464.884 396.439 464.225 398.029C463.566 399.619 463.394 401.369 463.73 403.057C464.066 404.746 464.894 406.296 466.112 407.513C467.329 408.731 468.879 409.559 470.568 409.895C472.256 410.231 474.006 410.059 475.596 409.4C477.186 408.741 478.546 407.626 479.502 406.195C480.458 404.763 480.969 403.081 480.969 401.359C480.969 399.051 480.052 396.837 478.42 395.205C476.788 393.573 474.574 392.656 472.266 392.656ZM499.719 374.406C499.719 372.836 498.446 371.562 496.875 371.562H492.844C491.463 371.562 490.344 370.443 490.344 369.062V365.031C490.344 363.461 489.071 362.188 487.5 362.188C485.929 362.188 484.656 363.461 484.656 365.031V369.062C484.656 370.443 483.537 371.562 482.156 371.562H478.125C476.554 371.562 475.281 372.836 475.281 374.406C475.281 375.977 476.554 377.25 478.125 377.25H482.156C483.537 377.25 484.656 378.369 484.656 379.75V383.781C484.656 385.352 485.929 386.625 487.5 386.625C489.071 386.625 490.344 385.352 490.344 383.781V379.75C490.344 378.369 491.463 377.25 492.844 377.25H496.875C498.446 377.25 499.719 375.977 499.719 374.406Z" fill="#5974E9" stroke="#5974E9"/>
<g clip-path="url(#clip0_97_67)">
<path d="M310.775 117.489L298.519 129.215L286.264 117.489C277.081 117.87 269.746 125.061 269.746 133.936C269.746 135.834 270.534 137.654 271.936 138.996C273.339 140.338 275.241 141.092 277.224 141.092H319.815C321.798 141.092 323.7 140.338 325.102 138.996C326.505 137.654 327.292 135.834 327.292 133.936C327.292 125.061 319.958 117.87 310.775 117.489ZM298.519 115.522C302.88 115.522 307.062 113.864 310.145 110.913C313.229 107.962 314.961 103.96 314.961 99.7866V86.242C314.962 85.4405 314.707 84.6578 314.231 83.9987C313.754 83.3396 313.079 82.8356 312.294 82.5541L301.406 78.651C299.545 77.9832 297.494 77.9832 295.633 78.651L284.744 82.559C283.961 82.8402 283.286 83.3435 282.81 84.0016C282.333 84.6597 282.078 85.4413 282.078 86.242V99.7866C282.078 103.96 283.81 107.962 286.893 110.913C289.977 113.864 294.159 115.522 298.519 115.522ZM293.381 86.9612C293.381 86.7981 293.449 86.6418 293.569 86.5265C293.69 86.4113 293.853 86.3465 294.024 86.3465H296.807V83.6826C296.807 83.5196 296.875 83.3632 296.995 83.2479C297.116 83.1327 297.279 83.0679 297.449 83.0679H299.589C299.76 83.0679 299.923 83.1327 300.044 83.2479C300.164 83.3632 300.232 83.5196 300.232 83.6826V86.3465H303.015C303.186 86.3465 303.349 86.4113 303.469 86.5265C303.59 86.6418 303.657 86.7981 303.657 86.9612V89.0092C303.657 89.1722 303.59 89.3285 303.469 89.4438C303.349 89.5591 303.186 89.6238 303.015 89.6238H300.232V92.2878C300.232 92.4508 300.164 92.6071 300.044 92.7224C299.923 92.8377 299.76 92.9024 299.589 92.9024H297.449C297.279 92.9024 297.116 92.8377 296.995 92.7224C296.875 92.6071 296.807 92.4508 296.807 92.2878V89.6238H294.024C293.853 89.6238 293.69 89.5591 293.569 89.4438C293.449 89.3285 293.381 89.1722 293.381 89.0092V86.9612ZM288.243 97.8197H308.795V99.7866C308.795 102.395 307.713 104.896 305.786 106.741C303.859 108.585 301.245 109.621 298.519 109.621C295.794 109.621 293.18 108.585 291.253 106.741C289.326 104.896 288.243 102.395 288.243 99.7866V97.8197Z" fill="#5974E9"/>
</g>
<defs>
<filter id="filter0_d_97_67" x="9.17912e-06" y="287.914" width="219.185" height="219.185" filterUnits="userSpaceOnUse" color-interpolation-filters="sRGB">
<feFlood flood-opacity="0" result="BackgroundImageFix"/>
<feColorMatrix in="SourceAlpha" type="matrix" values="0 0 0 0 0 0 0 0 0 0 0 0 0 0 0 0 0 0 127 0" result="hardAlpha"/>
<feMorphology radius="0.791281" operator="dilate" in="SourceAlpha" result="effect1_dropShadow_97_67"/>
<feOffset/>
<feGaussianBlur stdDeviation="19.782"/>
<feComposite in2="hardAlpha" operator="out"/>
<feColorMatrix type="matrix" values="0 0 0 0 0.34902 0 0 0 0 0.454902 0 0 0 0 0.913725 0 0 0 0.3 0"/>
<feBlend mode="normal" in2="BackgroundImageFix" result="effect1_dropShadow_97_67"/>
<feBlend mode="normal" in="SourceGraphic" in2="effect1_dropShadow_97_67" result="shape"/>
</filter>
<filter id="filter1_d_97_67" x="376.65" y="288.705" width="217.602" height="217.602" filterUnits="userSpaceOnUse" color-interpolation-filters="sRGB">
<feFlood flood-opacity="0" result="BackgroundImageFix"/>
<feColorMatrix in="SourceAlpha" type="matrix" values="0 0 0 0 0 0 0 0 0 0 0 0 0 0 0 0 0 0 127 0" result="hardAlpha"/>
<feOffset/>
<feGaussianBlur stdDeviation="19.782"/>
<feComposite in2="hardAlpha" operator="out"/>
<feColorMatrix type="matrix" values="0 0 0 0 0.34902 0 0 0 0 0.454902 0 0 0 0 0.913725 0 0 0 0.3 0"/>
<feBlend mode="normal" in2="BackgroundImageFix" result="effect1_dropShadow_97_67"/>
<feBlend mode="normal" in="SourceGraphic" in2="effect1_dropShadow_97_67" result="shape"/>
</filter>
<filter id="filter2_d_97_67" x="189.116" y="0.679108" width="217.602" height="217.602" filterUnits="userSpaceOnUse" color-interpolation-filters="sRGB">
<feFlood flood-opacity="0" result="BackgroundImageFix"/>
<feColorMatrix in="SourceAlpha" type="matrix" values="0 0 0 0 0 0 0 0 0 0 0 0 0 0 0 0 0 0 127 0" result="hardAlpha"/>
<feOffset/>
<feGaussianBlur stdDeviation="19.782"/>
<feComposite in2="hardAlpha" operator="out"/>
<feColorMatrix type="matrix" values="0 0 0 0 0.34902 0 0 0 0 0.454902 0 0 0 0 0.913725 0 0 0 0.3 0"/>
<feBlend mode="normal" in2="BackgroundImageFix" result="effect1_dropShadow_97_67"/>
<feBlend mode="normal" in="SourceGraphic" in2="effect1_dropShadow_97_67" result="shape"/>
</filter>
<clipPath id="clip0_97_67">
<rect width="57.5459" height="62.9408" fill="white" transform="translate(269.746 78.1509)"/>
</clipPath>
</defs>
</svg>
