<svg width="49" height="50" viewBox="0 0 49 50" fill="none" xmlns="http://www.w3.org/2000/svg">
<path fill-rule="evenodd" clip-rule="evenodd" d="M18.2975 38.4771C12.2888 33.7792 4.08337 26.0188 4.08337 18.6813C4.08337 6.42292 15.3125 1.84584 24.5 11.3125C33.6875 1.84584 44.9167 6.42292 44.9167 18.6792C44.9167 26.0188 36.7092 33.7792 30.7026 38.4771C27.9831 40.6021 26.6234 41.6667 24.5 41.6667C22.3767 41.6667 21.017 40.6042 18.2975 38.4771ZM33.6875 13.0208C34.0937 13.0208 34.4831 13.1855 34.7703 13.4785C35.0575 13.7715 35.2188 14.1689 35.2188 14.5833V17.1875H37.7709C38.177 17.1875 38.5665 17.3521 38.8536 17.6452C39.1408 17.9382 39.3021 18.3356 39.3021 18.75C39.3021 19.1644 39.1408 19.5618 38.8536 19.8549C38.5665 20.1479 38.177 20.3125 37.7709 20.3125H35.2188V22.9167C35.2188 23.3311 35.0575 23.7285 34.7703 24.0215C34.4831 24.3146 34.0937 24.4792 33.6875 24.4792C33.2814 24.4792 32.8919 24.3146 32.6048 24.0215C32.3176 23.7285 32.1563 23.3311 32.1563 22.9167V20.3125H29.6042C29.1981 20.3125 28.8086 20.1479 28.5214 19.8549C28.2343 19.5618 28.073 19.1644 28.073 18.75C28.073 18.3356 28.2343 17.9382 28.5214 17.6452C28.8086 17.3521 29.1981 17.1875 29.6042 17.1875H32.1563V14.5833C32.1563 14.1689 32.3176 13.7715 32.6048 13.4785C32.8919 13.1855 33.2814 13.0208 33.6875 13.0208Z" fill="#5974E9"/>
</svg>
