<svg width="81" height="81" viewBox="0 0 81 81" fill="none" xmlns="http://www.w3.org/2000/svg">
<path d="M72.5625 21.9375H62.4375V8.4375C62.4375 6.4125 61.0875 5.0625 59.0625 5.0625H21.9375C19.9125 5.0625 18.5625 6.4125 18.5625 8.4375V21.9375H8.4375C6.4125 21.9375 5.0625 23.2875 5.0625 25.3125V72.5625C5.0625 74.5875 6.4125 75.9375 8.4375 75.9375H72.5625C74.5875 75.9375 75.9375 74.5875 75.9375 72.5625V25.3125C75.9375 23.2875 74.5875 21.9375 72.5625 21.9375ZM25.3125 62.4375H21.9375C19.9125 62.4375 18.5625 61.0875 18.5625 59.0625C18.5625 57.0375 19.9125 55.6875 21.9375 55.6875H25.3125C27.3375 55.6875 28.6875 57.0375 28.6875 59.0625C28.6875 61.0875 27.3375 62.4375 25.3125 62.4375ZM25.3125 48.9375H21.9375C19.9125 48.9375 18.5625 47.5875 18.5625 45.5625C18.5625 43.5375 19.9125 42.1875 21.9375 42.1875H25.3125C27.3375 42.1875 28.6875 43.5375 28.6875 45.5625C28.6875 47.5875 27.3375 48.9375 25.3125 48.9375ZM42.1875 62.4375H38.8125C36.7875 62.4375 35.4375 61.0875 35.4375 59.0625C35.4375 57.0375 36.7875 55.6875 38.8125 55.6875H42.1875C44.2125 55.6875 45.5625 57.0375 45.5625 59.0625C45.5625 61.0875 44.2125 62.4375 42.1875 62.4375ZM42.1875 48.9375H38.8125C36.7875 48.9375 35.4375 47.5875 35.4375 45.5625C35.4375 43.5375 36.7875 42.1875 38.8125 42.1875H42.1875C44.2125 42.1875 45.5625 43.5375 45.5625 45.5625C45.5625 47.5875 44.2125 48.9375 42.1875 48.9375ZM45.5625 30.375H43.875V32.0625C43.875 34.0875 42.525 35.4375 40.5 35.4375C38.475 35.4375 37.125 34.0875 37.125 32.0625V30.375H35.4375C33.4125 30.375 32.0625 29.025 32.0625 27C32.0625 24.975 33.4125 23.625 35.4375 23.625H37.125V21.9375C37.125 19.9125 38.475 18.5625 40.5 18.5625C42.525 18.5625 43.875 19.9125 43.875 21.9375V23.625H45.5625C47.5875 23.625 48.9375 24.975 48.9375 27C48.9375 29.025 47.5875 30.375 45.5625 30.375ZM59.0625 62.4375H55.6875C53.6625 62.4375 52.3125 61.0875 52.3125 59.0625C52.3125 57.0375 53.6625 55.6875 55.6875 55.6875H59.0625C61.0875 55.6875 62.4375 57.0375 62.4375 59.0625C62.4375 61.0875 61.0875 62.4375 59.0625 62.4375ZM59.0625 48.9375H55.6875C53.6625 48.9375 52.3125 47.5875 52.3125 45.5625C52.3125 43.5375 53.6625 42.1875 55.6875 42.1875H59.0625C61.0875 42.1875 62.4375 43.5375 62.4375 45.5625C62.4375 47.5875 61.0875 48.9375 59.0625 48.9375Z" fill="white"/>
</svg>
