<svg width="39" height="44" viewBox="0 0 39 44" fill="none" xmlns="http://www.w3.org/2000/svg">
<path d="M12.3334 20.3333C10.1233 20.3333 8.00366 19.4554 6.44086 17.8926C4.87806 16.3297 4.00008 14.2101 4.00008 12V5.33333C4.00008 4.8913 4.17568 4.46738 4.48824 4.15482C4.8008 3.84226 5.22472 3.66666 5.66675 3.66666H7.33341C7.77544 3.66666 8.19936 3.49107 8.51193 3.17851C8.82449 2.86595 9.00008 2.44202 9.00008 1.99999C9.00008 1.55797 8.82449 1.13404 8.51193 0.821484C8.19936 0.508923 7.77544 0.333328 7.33341 0.333328H5.66675C4.34067 0.333328 3.0689 0.860113 2.13121 1.79779C1.19353 2.73548 0.666748 4.00725 0.666748 5.33333V12C0.66889 13.8829 1.12803 15.7371 2.00475 17.4035C2.88146 19.0698 4.14954 20.4984 5.70008 21.5667C7.1898 22.88 8.39793 24.4817 9.25156 26.2749C10.1052 28.068 10.5866 30.0156 10.6667 32C10.6667 35.0942 11.8959 38.0616 14.0838 40.2496C16.2718 42.4375 19.2392 43.6667 22.3334 43.6667C25.4276 43.6667 28.3951 42.4375 30.583 40.2496C32.7709 38.0616 34.0001 35.0942 34.0001 32V30.1C35.5712 29.6943 36.9404 28.7296 37.8511 27.3867C38.7618 26.0437 39.1514 24.4147 38.9469 22.805C38.7425 21.1953 37.958 19.7154 36.7405 18.6428C35.523 17.5701 33.956 16.9784 32.3334 16.9784C30.7108 16.9784 29.1439 17.5701 27.9264 18.6428C26.7089 19.7154 25.9243 21.1953 25.7199 22.805C25.5154 24.4147 25.9051 26.0437 26.8157 27.3867C27.7264 28.7296 29.0956 29.6943 30.6667 30.1V32C30.6667 34.2101 29.7888 36.3298 28.226 37.8926C26.6632 39.4554 24.5436 40.3333 22.3334 40.3333C20.1233 40.3333 18.0037 39.4554 16.4409 37.8926C14.8781 36.3298 14.0001 34.2101 14.0001 32C14.0844 30.0132 14.5711 28.0641 15.4305 26.2707C16.2899 24.4774 17.5043 22.8771 19.0001 21.5667C20.5445 20.4947 21.8061 19.0645 22.6768 17.3984C23.5476 15.7323 24.0017 13.8799 24.0001 12V5.33333C24.0001 4.00725 23.4733 2.73548 22.5356 1.79779C21.5979 0.860113 20.3262 0.333328 19.0001 0.333328H17.3334C16.8914 0.333328 16.4675 0.508923 16.1549 0.821484C15.8423 1.13404 15.6667 1.55797 15.6667 1.99999C15.6667 2.44202 15.8423 2.86595 16.1549 3.17851C16.4675 3.49107 16.8914 3.66666 17.3334 3.66666H19.0001C19.4421 3.66666 19.866 3.84226 20.1786 4.15482C20.4912 4.46738 20.6667 4.8913 20.6667 5.33333V12C20.6667 13.0943 20.4512 14.178 20.0324 15.189C19.6136 16.2001 18.9998 17.1187 18.226 17.8926C17.4521 18.6664 16.5335 19.2802 15.5224 19.699C14.5114 20.1178 13.4278 20.3333 12.3334 20.3333ZM32.3334 27C31.4494 27 30.6015 26.6488 29.9764 26.0237C29.3513 25.3986 29.0001 24.5507 29.0001 23.6667C29.0001 22.7826 29.3513 21.9348 29.9764 21.3096C30.6015 20.6845 31.4494 20.3333 32.3334 20.3333C33.2175 20.3333 34.0653 20.6845 34.6904 21.3096C35.3156 21.9348 35.6667 22.7826 35.6667 23.6667C35.6667 24.5507 35.3156 25.3986 34.6904 26.0237C34.0653 26.6488 33.2175 27 32.3334 27Z" fill="#5974E9"/>
</svg>
