<svg width="102" height="64" viewBox="0 0 102 64" fill="none" xmlns="http://www.w3.org/2000/svg">
<path d="M74.25 1L74.2494 1.00001C73.8383 1.00025 73.428 1.01946 73.0197 1.05743C71.9337 1.15842 71.1716 1.85238 70.8277 2.70569C70.4939 3.53398 70.5403 4.5218 70.9834 5.3695C72.4909 8.25351 73.2871 11.4705 73.2871 14.75C73.2871 18.0295 72.4909 21.2465 70.9834 24.1305C70.5403 24.9782 70.4939 25.966 70.8277 26.7943C71.1716 27.6476 71.9337 28.3416 73.0197 28.4426C73.428 28.4805 73.8383 28.4998 74.2494 28.5H74.25C77.8967 28.5 81.3941 27.0513 83.9727 24.4727C86.5513 21.8941 88 18.3967 88 14.75C88 11.1033 86.5513 7.60591 83.9727 5.02729C81.3941 2.44866 77.8967 1 74.25 1ZM79.5 59.5V53H78.5C79.5 53 79.5 52.9992 79.5 52.9983L79.5 52.9963L79.5 52.991L79.4998 52.9758C79.4997 52.9636 79.4994 52.9473 79.4989 52.9271C79.4979 52.8866 79.4961 52.8303 79.4925 52.7591C79.4854 52.617 79.4715 52.4154 79.4445 52.163C79.3904 51.6585 79.2835 50.9484 79.0717 50.1012C78.6484 48.4079 77.8027 46.1537 76.1125 43.9C72.6974 39.3465 65.994 35 53 35C40.006 35 33.3026 39.3465 29.8875 43.9C28.1973 46.1537 27.3516 48.4079 26.9283 50.1012C26.7165 50.9484 26.6096 51.6585 26.5555 52.163C26.5284 52.4154 26.5146 52.617 26.5075 52.7591C26.5039 52.8303 26.5021 52.8866 26.5011 52.9271C26.5006 52.9473 26.5003 52.9636 26.5002 52.9758L26.5 52.991L26.5 52.9963L26.5 52.9983C26.5 52.9992 26.5 53 27.5 53H26.5V59.5C26.5 61.1569 27.8431 62.5 29.5 62.5H76.5C78.1569 62.5 79.5 61.1569 79.5 59.5ZM66.75 14.75C66.75 12.0305 65.9436 9.37209 64.4327 7.11091C62.9218 4.84974 60.7744 3.08737 58.2619 2.04666C55.7494 1.00596 52.9847 0.733661 50.3175 1.26421C47.6503 1.79475 45.2003 3.10431 43.2773 5.02729C41.3543 6.95026 40.0448 9.40027 39.5142 12.0675C38.9837 14.7348 39.2559 17.4994 40.2967 20.0119C41.3374 22.5244 43.0997 24.6718 45.3609 26.1827C47.6221 27.6936 50.2805 28.5 53 28.5C56.6467 28.5 60.1441 27.0513 62.7227 24.4727C65.3013 21.8941 66.75 18.3967 66.75 14.75ZM85.5237 36.3678C84.055 35.963 82.8551 36.755 82.272 37.7981C81.702 38.8178 81.6172 40.221 82.3637 41.3768C82.9605 42.3006 83.4909 43.2685 83.95 44.2734C85.2062 47.0229 85.903 49.9947 86 53.0158V59.5C86 61.1569 87.3431 62.5 89 62.5H97.75C99.4069 62.5 100.75 61.1569 100.75 59.5V53C100.75 52.913 100.739 49.8125 98.8221 46.1955C96.8859 42.5426 93.0438 38.4406 85.5237 36.3678ZM31.1155 19.7243C29.991 18.3575 27.9337 18.2562 26.6804 19.506L14.3911 31.7611C14.0013 32.1498 13.3706 32.1504 12.9801 31.7623L9.04907 27.856C7.87643 26.6907 5.9821 26.6937 4.81314 27.8627L2.64696 30.0288C1.51122 31.1646 1.47148 32.9933 2.55681 34.1773L11.5389 43.9759C12.693 45.235 14.6639 45.2778 15.8716 44.0701L33.2988 26.6429C34.3908 25.5509 34.4754 23.8083 33.4942 22.6156L31.1155 19.7243Z" fill="white" stroke="white" stroke-width="2"/>
</svg>
